<svg id="Layer_1" data-name="Layer 1" xmlns="http://www.w3.org/2000/svg" viewBox="0 0 100 100"><path id="a-letter" d="M98.58,53.35a3.83,3.83,0,0,0-2.79-1.14A3.68,3.68,0,0,0,93,53.38a4,4,0,0,0-1.11,2.83v1.58a14.16,14.16,0,0,0-2-2,18.45,18.45,0,0,0-5-2.84A18.09,18.09,0,0,0,69,54.64a19.51,19.51,0,0,0-6.79,7.58,24,24,0,0,0-2.52,11.21,23.8,23.8,0,0,0,2.52,11.08,19.61,19.61,0,0,0,6.83,7.66A17.61,17.61,0,0,0,78.81,95a15.28,15.28,0,0,0,5.73-1.06,17.32,17.32,0,0,0,4.64-2.68,15.19,15.19,0,0,0,2.67-2.73v1.67A4,4,0,0,0,93,93a3.72,3.72,0,0,0,2.83,1.13A3.82,3.82,0,0,0,98.58,93a4,4,0,0,0,1.13-2.88V56.21A3.89,3.89,0,0,0,98.58,53.35Zm-8,27.34a12.76,12.76,0,0,1-4.37,5.15,12.05,12.05,0,0,1-13,0,12.66,12.66,0,0,1-4.36-5.15,17.58,17.58,0,0,1,0-14.57A12.6,12.6,0,0,1,73.31,61a12,12,0,0,1,12.92,0,12.84,12.84,0,0,1,4.37,5.11,17.69,17.69,0,0,1,0,14.57Z"/><path id="e-letter" d="M59.2,90.7a5.92,5.92,0,0,1-1.91,4.55A6.59,6.59,0,0,1,52.6,97h-45a6.63,6.63,0,0,0,4.49-1.94,6.49,6.49,0,0,0,2-4.9V84.34H52.6a6.38,6.38,0,0,1,4.69,1.93A6,6,0,0,1,59.2,90.7Z"/><path id="n-letter" d="M99.71,69V92.75A4.47,4.47,0,0,1,98.43,96a4.34,4.34,0,0,1-3.16,1.28A4.26,4.26,0,0,1,92.08,96a4.52,4.52,0,0,1-1.24-3.26V69.08A17.21,17.21,0,0,0,90,63.36a8.24,8.24,0,0,0-3-4.08,10.34,10.34,0,0,0-6.08-1.56,12.72,12.72,0,0,0-6.4,1.56,11.57,11.57,0,0,0-4.3,4.08,10.73,10.73,0,0,0-1.54,5.72V92.75A4.41,4.41,0,0,1,67.28,96,4.55,4.55,0,0,1,61,96a4.44,4.44,0,0,1-1.24-3.26V55.14A4.37,4.37,0,0,1,61,51.91a4.55,4.55,0,0,1,6.33,0,4.34,4.34,0,0,1,1.3,3.23v2.7c.18-.26.38-.53.57-.79a21.81,21.81,0,0,1,3.77-3.72,18.18,18.18,0,0,1,5-2.74,16.44,16.44,0,0,1,5.85-1q6.3,0,9.76,2.62a13.57,13.57,0,0,1,4.83,7A32.32,32.32,0,0,1,99.71,69Z"/><path id="f-letter" d="M59.25,9.62c0,.23,0,.45,0,.68v0a6.11,6.11,0,0,1-1.91,3.73,6.74,6.74,0,0,1-4.9,1.88H14.13v1.26H14V43.24H46.69a6.51,6.51,0,0,1,4.69,1.84,6,6,0,0,1,1.44,2.12,3.1,3.1,0,0,1,.13.4,6.94,6.94,0,0,1,.26,1.91,6,6,0,0,1-1.94,4.42,6.78,6.78,0,0,1-4.9,1.88H14.13v.24H14V84.34h.1V90.2a6.55,6.55,0,0,1-2,4.9A6.7,6.7,0,0,1,7.63,97H6.47a7.22,7.22,0,0,1-3.26-1l-.4-.28a6.44,6.44,0,0,1-.69-.6c-.16-.16-.31-.33-.46-.5s-.24-.31-.35-.46A6.87,6.87,0,0,1,.16,90.2V9.89A6.58,6.58,0,0,1,2.18,5,6.74,6.74,0,0,1,7,3H52.41a6.79,6.79,0,0,1,4.9,1.88A6.28,6.28,0,0,1,59.25,9.62Z"/></svg>